<?xml version="1.0" encoding="utf-8"?>
<!-- Svg Vector Icons : http://www.onlinewebfonts.com/icon -->
<!DOCTYPE svg PUBLIC "-//W3C//DTD SVG 1.1//EN" "http://www.w3.org/Graphics/SVG/1.1/DTD/svg11.dtd">
<svg version="1.1" xmlns="http://www.w3.org/2000/svg" xmlns:xlink="http://www.w3.org/1999/xlink" x="0px" y="0px" viewBox="0 0 256 256" enable-background="new 0 0 256 256" xml:space="preserve">
<metadata> Svg Vector Icons : http://www.onlinewebfonts.com/icon </metadata>
<g><g><g><path fill="#000000" d="M10,24.9v13.4h3.7h3.7V27.2V16.2H128h110.6v11.1v11.1h3.7h3.7V24.9V11.5H128H10V24.9z"/><path fill="#000000" d="M35.8,27.2v3.7H128h92.2v-3.7v-3.7H128H35.8V27.2z"/><path fill="#000000" d="M10,130.5v84.8h59h59v-3.7v-3.7H72.7H17.4v-77.4V53H128h110.6v44.3v44.3h3.7h3.7V93.6V45.7H128H10V130.5z"/><path fill="#000000" d="M87.4,86.2v11.1h11.1h11.1V86.2V75.2H98.5H87.4V86.2z M102.2,86.2v3.7h-3.7h-3.7v-3.7v-3.7h3.7h3.7V86.2z"/><path fill="#000000" d="M116.9,86.2v11.1H128h11.1V86.2V75.2H128h-11.1V86.2z M131.7,86.2v3.7H128h-3.7v-3.7v-3.7h3.7h3.7V86.2z"/><path fill="#000000" d="M146.4,86.2v11.1h11.1h11.1V86.2V75.2h-11.1h-11.1V86.2z M161.2,86.2v3.7h-3.7h-3.7v-3.7v-3.7h3.7h3.7V86.2z"/><path fill="#000000" d="M175.9,86.2v11.1H187h11.1V86.2V75.2H187h-11.1V86.2z M190.7,86.2v3.7H187h-3.7v-3.7v-3.7h3.7h3.7V86.2z"/><path fill="#000000" d="M205.4,86.2v11.1h11.1h11.1V86.2V75.2h-11.1h-11.1V86.2z M220.2,86.2v3.7h-3.7h-3.7v-3.7v-3.7h3.7h3.7V86.2z"/><path fill="#000000" d="M35.8,86.2v3.7h3.7h3.7v-3.7v-3.7h-3.7h-3.7V86.2z"/><path fill="#000000" d="M65.3,86.2v3.7H69h3.7v-3.7v-3.7H69h-3.7V86.2z"/><path fill="#000000" d="M28.4,115.7v11.1h11.1h11.1v-11.1v-11.1H39.5H28.4V115.7z M43.2,115.7v3.7h-3.7h-3.7v-3.7V112h3.7h3.7V115.7z"/><path fill="#000000" d="M57.9,115.7v11.1H69h11.1v-11.1v-11.1H69H57.9V115.7z M72.7,115.7v3.7H69h-3.7v-3.7V112H69h3.7V115.7z"/><path fill="#000000" d="M87.4,115.7v11.1h11.1h11.1v-11.1v-11.1H98.5H87.4V115.7z M102.2,115.7v3.7h-3.7h-3.7v-3.7V112h3.7h3.7V115.7z"/><path fill="#000000" d="M116.9,115.7v11.1H128h11.1v-11.1v-11.1H128h-11.1V115.7z M131.7,115.7v3.7H128h-3.7v-3.7V112h3.7h3.7V115.7z"/><path fill="#000000" d="M146.4,115.7v11.1h11.1h11.1v-11.1v-11.1h-11.1h-11.1V115.7z M161.2,115.7v3.7h-3.7h-3.7v-3.7V112h3.7h3.7V115.7z"/><path fill="#000000" d="M175.9,115.7v11.1H187h11.1v-11.1v-11.1H187h-11.1V115.7z M190.7,115.7v3.7H187h-3.7v-3.7V112h3.7h3.7V115.7z"/><path fill="#000000" d="M205.4,115.7v11.1h11.1h11.1v-11.1v-11.1h-11.1h-11.1V115.7z M220.2,115.7v3.7h-3.7h-3.7v-3.7V112h3.7h3.7V115.7z"/><path fill="#000000" d="M28.4,145.2v11.1h11.1h11.1v-11.1v-11.1H39.5H28.4V145.2z M43.2,145.2v3.7h-3.7h-3.7v-3.7v-3.7h3.7h3.7V145.2z"/><path fill="#000000" d="M57.9,145.2v11.1H69h11.1v-11.1v-11.1H69H57.9V145.2z M72.7,145.2v3.7H69h-3.7v-3.7v-3.7H69h3.7V145.2z"/><path fill="#000000" d="M87.4,145.2v11.1h11.1h11.1v-11.1v-11.1H98.5H87.4V145.2z M102.2,145.2v3.7h-3.7h-3.7v-3.7v-3.7h3.7h3.7V145.2z"/><path fill="#000000" d="M116.9,145.2v11.1H128h11.1v-11.1v-11.1H128h-11.1V145.2z M131.7,145.2v3.7H128h-3.7v-3.7v-3.7h3.7h3.7V145.2z"/><path fill="#000000" d="M185.6,134.4c-0.6,0.1-2.6,0.4-4.4,0.7c-16.4,2.6-32.1,14.6-40.1,30.2c-4,7.9-5.5,14.6-5.5,24.1c0,7.6,0.5,10.8,2.7,17.3c4.5,13.5,15.2,25.6,28.3,32.2c7.9,4,15.3,5.6,25,5.5c5.8,0,7.4-0.2,12.1-1.4c10-2.6,18.5-7.5,25.8-14.8c7.5-7.5,12.2-15.8,14.8-25.8c1.2-4.7,1.4-6.3,1.4-12.1c0.1-7.4-0.5-11.5-2.5-17.6c-2.7-8.4-7.1-15.5-13.7-22.1c-8.1-8.1-17.2-13.1-28.3-15.4C197.9,134.6,187.9,134,185.6,134.4z M202.4,142.9c17.3,4.3,30.5,17.6,34.9,35.1c1.5,5.9,1.4,17.5-0.1,23.2c-4.7,17.7-17.2,30.2-34.9,34.9c-5.8,1.5-17.4,1.6-23.2,0.1c-17.6-4.4-30.7-17.6-35.2-35.2c-1.4-5.6-1.4-17.4,0-23c4.9-19.3,20-33,40-36.1C187.3,141.3,198.8,141.9,202.4,142.9z"/><path fill="#000000" d="M187,152.6v3.7h3.7h3.7v-3.7v-3.7h-3.7H187V152.6z"/><path fill="#000000" d="M161.2,163.7v3.7h3.7h3.7v-3.7V160h-3.7h-3.7V163.7z"/><path fill="#000000" d="M212.8,163.7v3.7h3.7h3.7v-3.7V160h-3.7h-3.7V163.7z"/><path fill="#000000" d="M187,177.6v10.3l-6.8,6.8l-6.8,6.8l2.7,2.6l2.6,2.7l7.8-7.8l7.8-7.8v-11.8v-11.9h-3.7H187V177.6z"/><path fill="#000000" d="M150.1,189.5v3.7h3.7h3.7v-3.7v-3.7h-3.7h-3.7L150.1,189.5L150.1,189.5z"/><path fill="#000000" d="M223.9,189.5v3.7h3.7h3.7v-3.7v-3.7h-3.7h-3.7V189.5z"/><path fill="#000000" d="M161.2,215.3v3.7h3.7h3.7v-3.7v-3.7h-3.7h-3.7V215.3z"/><path fill="#000000" d="M212.8,215.3v3.7h3.7h3.7v-3.7v-3.7h-3.7h-3.7V215.3z"/><path fill="#000000" d="M187,226.3v3.7h3.7h3.7v-3.7v-3.7h-3.7H187V226.3z"/><path fill="#000000" d="M28.4,174.7v11.1h11.1h11.1v-11.1v-11.1H39.5H28.4V174.7z M43.2,174.7v3.7h-3.7h-3.7v-3.7V171h3.7h3.7V174.7z"/><path fill="#000000" d="M57.9,174.7v11.1H69h11.1v-11.1v-11.1H69H57.9V174.7z M72.7,174.7v3.7H69h-3.7v-3.7V171H69h3.7V174.7z"/><path fill="#000000" d="M87.4,174.7v11.1h11.1h11.1v-11.1v-11.1H98.5H87.4V174.7z M102.2,174.7v3.7h-3.7h-3.7v-3.7V171h3.7h3.7V174.7z"/></g></g></g>
</svg>